<svg xmlns="http://www.w3.org/2000/svg"
     pointer-events="none" class="leaflet-zoom-animated" width="1153" height="700" viewBox="-96 -58 1153 700"
     style="transform: translate3d(-96px, -58px, 0px);">
    <g>
        <path class="leaflet-interactive" stroke="red" stroke-opacity="1" stroke-width="2" stroke-linecap="round"
              stroke-linejoin="round" stroke-dasharray="1,6" fill="none" d="M243 272L245 270L243 268L243 262L237 261"/>
        <path class="leaflet-interactive" stroke="blue" stroke-opacity="1" stroke-width="0.7" stroke-linecap="round"
              stroke-linejoin="round" fill="none"
              d="M468 408L468 408M467 408L467 408M471 408L471 408M465 409L465 409M469 410L469 410M463 370L456 374L455 373L448 376L447 375L444 378L446 382L443 383L441 379L442 376L440 374L431 374M436 374L436 374M450 384L450 384M450 384L450 384M450 384L450 384M450 384L450 384M450 384L450 384M450 384L450 384M455 375L455 375M458 374L458 374M459 373L459 373M459 373L459 373M459 373L458 374L459 373M459 373L459 373M460 445L460 445M460 445L460 445M460 445L460 445M460 445L460 445M460 373L460 373M463 371L463 371M463 370L463 370M463 370L463 370M463 370L463 370M463 370L463 370M463 370L463 370M463 370L463 370M467 370L465 370L466 369L464 367L463 370M464 372L464 372M465 368L465 368M465 371L465 371M465 371L465 371M465 370L465 370M466 370L466 370M466 372L466 372M467 370L467 370M467 368L467 368M482 363L477 367L469 367L469 369L467 368M467 368L467 368M467 368L467 368M467 369L467 369M467 368L467 368M467 368L467 368M467 368L467 368M467 368L467 368M467 370L467 370M467 369L467 369M467 368L467 368M467 368L468 370M467 369L467 369M467 368L467 368M467 368L467 368M467 369L467 369M467 369L467 369M467 369L467 369M467 369L467 369M467 369L467 369M467 369L467 369M467 369L467 369M467 369L467 369M467 369L467 369M467 369L467 369M467 370L467 370M467 370L467 370M467 369L467 370M467 370L467 370M467 370L467 370M467 370L467 370M467 370L467 370M467 369L467 369M467 369L467 369M467 370L467 370M467 369L467 369M467 369L467 369M467 369L467 369M467 369L467 369M467 369L467 369M467 369L467 369M467 369L467 369M468 370L467 369M467 370L467 370M467 369L467 369M468 370L468 370M468 370L468 370M468 370L468 370M468 370L468 370M468 370L468 370M468 369L468 369M468 369L468 369M468 369L468 369M468 369L468 369M468 369L468 369M474 368L474 368M474 368L474 368M476 367L476 367M476 367L476 367M482 363L482 363M482 363L482 363M482 363L482 363M482 363L482 363M482 363L482 363M482 363L482 363M482 363L482 363M489 356L489 358L482 363M482 362L482 362M483 363L483 363M489 358L489 358M489 356L489 356M489 356L489 356M489 356L489 356M490 356L489 356M489 357L489 357M489 357L489 357M490 356L490 356M490 356L490 356M490 356L491 357L490 356M490 356L490 356M490 356L490 356M490 356L490 356M490 356L490 356M492 356L490 356M491 356L491 356M491 356L491 356M492 356L492 356M494 353L492 356M492 356L492 356M492 356L492 356M492 355L492 355M492 355L492 355M494 352L494 352M494 353L494 353M494 353L494 353M498 351L495 350L496 351L494 351L494 353M495 351L495 351M497 350L497 350M497 351L497 351M497 351L497 351M497 351L497 351M497 349L497 349M497 351L497 351M497 349L497 349M498 349L498 349M498 351L498 351M498 349L498 349M498 351L498 351M498 350L498 350M498 349L498 349M498 351L498 351M498 351L498 351M498 351L498 351M498 351L498 351M506 335L504 335L504 338L499 343L500 342L497 343L499 344L497 346L497 349L499 349L498 351M499 345L499 345M499 349L499 349M499 350L499 350M499 344L499 344M499 344L499 344M500 346L500 346M500 346L500 346M500 346L500 346M500 346L500 346M500 347L500 347M500 345L500 345M500 345L500 345M504 337L504 337M504 340L504 340M504 340L504 340M504 340L504 340M505 246L493 258L491 258L492 259L488 257L486 263L488 263L491 266L494 265L494 270L496 272L498 272L503 267L507 269M525 250L523 253L516 254L506 261L506 259L509 258L507 254L512 249L512 247L510 245L505 246M506 335L506 335M511 327L509 327L509 331L506 335M506 335L506 335M506 335L506 335M506 336L506 336M507 269L514 270L514 274L511 273L507 275L503 280L500 279L501 280L495 287L495 289L502 293L505 300L505 304L507 304L508 307L510 307L511 310L507 309L507 311M507 318L507 318M507 311L511 314L512 317L506 317L511 322M508 269L508 269M508 269L508 269M508 269L508 269M508 269L508 269M508 269L508 269M508 269L508 269M508 269L508 269M508 269L508 269M508 269L508 269M508 333L508 333M508 334L508 334M508 334L508 334M508 334L508 334M508 334L508 334M509 319L509 319M510 330L510 330M511 322L511 327M511 320L511 320M511 322L511 322M511 322L511 322M511 322L511 322M511 274L511 274M512 321L512 321M512 321L512 321M512 321L512 321M512 321L512 321M512 321L512 321M512 321L512 321M512 321L512 321M512 321L512 321M512 269L512 269M513 321L513 321M513 321L513 321M513 321L513 321M513 321L513 321M514 321L514 321M514 319L514 319M514 322L514 322M514 319L514 319M517 255L517 255M517 255L517 255M517 256L517 256M518 254L518 254M435 388L439 384L440 385L446 383L449 385L446 391L441 395L435 392L435 388M438 378L438 378M440 458L441 457L440 458M442 455L442 455M445 454L446 453L445 454M446 377L445 378L446 377M446 377L446 377M446 378L446 378M451 401L451 401M452 457L452 457M452 455L452 455M452 455L452 455M452 406L452 406M452 450L453 451L452 450M452 456L452 456M453 407L453 407M454 454L454 454M454 406L454 406M455 402L455 402M456 406L456 406M457 408L458 407L457 408M457 405L457 405M457 445L457 445M457 468L457 468M457 467L457 467M457 374L458 373L457 374M457 449L458 450L457 449M457 471L457 471M457 468L458 469L457 468M458 469L458 469M458 471L458 471M459 472L460 471L459 472M460 387L460 387M461 454L462 453L461 454M463 370L463 370M463 449L464 448L463 449M464 456L464 456M465 389L465 389M465 454L465 454M465 457L469 455L465 457M465 450L465 450M465 449L466 450L465 449M467 441L467 441M468 438L468 438M468 439L469 438L468 439M468 454L469 453L468 454M469 449L469 449M469 443L469 443M469 435L469 435M469 457L469 457M469 434L470 435L469 434M469 441L469 441M470 437L470 437M470 407L470 407M470 459L470 459M470 454L471 455L470 454M471 438L471 438M471 457L471 457M472 452L473 453L472 452M473 420L473 420M474 443L474 443M474 452L474 452M476 444L476 444M476 378L476 378M477 377L477 377M477 447L477 447M477 442L477 442M480 441L480 441M481 440L481 440M481 406L481 406M481 379L482 380L481 379M483 363L483 363M484 439L484 439M484 437L484 437M487 438L487 438M497 352L497 352M498 362L498 362M498 343L498 343M500 364L505 354L508 351L511 352L505 372L503 372L500 364M502 341L502 341M506 334L506 334M509 310L511 311L506 309L509 310M508 367L508 367M508 371L508 371M510 312L509 311L510 312M510 312L510 312M510 320L511 321L510 320M511 313L511 313M511 319L511 319M512 319L512 319M512 323L511 322L512 323M513 320L511 320L513 320M513 322L513 322M513 323L512 322L513 323M513 319L513 319M513 321L514 322L513 321M513 318L513 318M513 321L513 321M517 255L517 255M518 259L518 259M519 348L520 349L518 349L519 348M520 347L521 348L520 347M525 347L526 348L525 347M487 412L487 412M456 478L456 478M454 478L454 478M456 478L456 478"/>
        <path class="leaflet-interactive" stroke="#F2F7F7" stroke-opacity="1" stroke-width="0.2" stroke-linecap="round"
              stroke-linejoin="round" stroke-dasharray="1,10" fill="none"
              d="M327 280L325 278L315 277L307 279L306 282L297 283L298 284L296 285L292 285L286 282L282 286L278 284L274 285L272 289L270 291L266 291L267 292M373 304L371 304L371 306L367 308L368 310L364 308L365 310L362 310L360 306L359 307L359 305L355 303L351 305L330 298L327 294L327 280M343 258L330 262L330 264L332 264L332 268L336 271L336 273L333 275L335 277L334 280L330 278L327 280M393 292L398 293L399 291L397 289L400 286L399 285L401 283L402 284L401 282L403 280L400 273L401 272L397 268L392 267L386 262L386 264L380 258L377 258L375 260L369 257L369 261L365 265L361 263L356 263L354 260L352 261L347 259L347 257L343 258M365 231L363 233L363 237L359 240L359 238L357 238L350 246L346 247L342 257L343 258M410 270L405 267L405 263L410 259L408 255L403 258L396 258L397 261L391 259L391 257L388 254L383 252L387 249L387 245L384 244L379 247L376 247L376 244L372 241L374 239L370 230M396 297L396 299L392 299L393 302L389 304L386 303L386 301L384 303L381 300L379 300L377 294L374 293L371 296L373 298L371 302L373 304M381 326L380 316L378 313L379 312L377 310L376 305L373 304M375 333L379 332L378 329L380 329L381 326M416 336L415 333L413 335L411 334L411 330L407 330L408 331L405 334L406 335L402 339L403 344L396 346L392 340L393 339L386 334L387 333L384 329L382 333L381 326M393 292L390 292L394 297L395 296L395 298L396 297M417 302L415 304L412 303L410 301L410 297L406 295L405 296L403 292L398 294L400 298L398 300L396 300L396 297M429 267L423 264L426 259L425 256L423 256L419 260L418 268L410 270M410 270L412 270L412 272L413 271L416 274L416 282L417 281L422 286L422 282L425 281L425 279L422 276L424 274L423 273L427 272M416 336L416 338L411 337L406 340L407 343L412 344L410 349L413 352L412 355M412 355L412 357L416 359L421 359L421 361L417 364M440 347L437 348L437 350L436 349L431 352L428 352L427 349L426 352L425 351L421 353L421 355L416 353L412 355M422 331L420 329L418 331L422 334L421 336L416 336M427 272L427 274L431 276L432 275L431 276L435 278L435 284L431 286L430 285L429 288L424 287L422 290L424 292L422 295L423 296L420 297L420 300L417 302M434 306L431 307L428 304L427 305L425 303L422 304L420 302L417 302M439 331L437 333L433 329L433 327L430 328L430 326L428 326L428 328L426 328L423 331L423 329L422 331M422 331L422 329L419 328L416 324L420 318L425 321L429 317L428 316L432 314L434 310L433 308M426 320L426 320M426 320L426 320M427 272L429 267M449 256L448 255L446 257L444 255L444 257L441 258L441 260L437 263L436 268L433 269L429 267M433 308L434 306M434 306L440 310M440 310L444 313L444 315L442 315L439 318L436 317L433 322L435 322L437 324L436 325L438 325L438 327M438 327L439 331M465 327L463 323L460 325L459 323L456 324L453 321L452 322L448 320L446 320L445 323L440 323L438 327M440 347L439 339L436 340L440 336L439 331M454 355L452 355L451 352L448 354L451 348L450 345L448 344L445 347L443 347L443 345L440 347M448 299L440 299L442 301L441 302L444 303L440 305L440 310M442 375L441 375M445 372L443 372L441 374L442 375M442 383L443 383M443 383L445 383M445 290L445 273L447 271L446 264L450 257L449 256M445 290L449 298L448 299M445 290L455 287L455 285L461 285L463 283L464 278M445 372L445 370L446 371L447 368L451 366L451 362L454 359L454 355M445 383L446 382M473 312L466 309L464 305L455 305L448 299M466 246L463 249L457 249L454 252L454 254L449 256M454 355L455 352L459 354L461 350L465 350M471 279L464 278M464 278L463 275L466 268L463 262L465 260L464 259L467 258L469 254L468 255L466 250M465 350L467 346L465 346L465 338L463 338L463 336L467 332L465 327M478 322L474 322L471 325L467 325L465 327M465 350L470 351L467 354L467 356L473 354L475 356L476 353M466 250L466 250M466 250L468 249L466 246M483 233L481 237L475 237L472 240L469 235L465 241L466 246M472 279L471 279M471 279L471 279M474 279L472 279M478 290L481 294L479 296L476 294L474 295L475 296L473 300L471 300L471 302L474 305L475 304L477 307L473 312M478 322L476 318L477 315L476 313L473 312M488 264L485 267L481 267L479 270L478 269L479 270L473 276L474 279M478 290L474 290L474 288L470 286L477 279L474 282L474 279M474 305L474 305M475 254L475 254M485 250L485 246L483 246L480 243L480 245L479 244L479 246L475 248L475 254M475 254L475 255M475 255L476 255M476 255L476 255M476 255L479 255M484 362L482 360L482 356L476 353M476 353L483 337L491 332M489 325L484 322L482 324L480 320L480 322L478 322M479 290L478 290M484 290L483 291L482 288L480 288L479 290M498 313L497 314L495 312L492 312L493 311L490 308L492 304L495 303L493 301L493 303L491 303L490 300L488 300L489 297L479 290M479 255L482 254M481 258L481 258M481 261L481 258M481 258L481 255M481 261L481 261M486 261L481 261M481 255L481 254M481 254L481 254M481 254L482 254M482 254L482 254M482 254L484 254L484 251M484 251L481 252L482 254M495 241L494 242L489 239L490 236L487 231L483 233M483 233L483 233M484 362L484 363M485 250L484 251M484 290L484 290M496 287L494 287L490 291L488 289L486 291L484 290M485 250L485 250M485 363L485 364M486 251L485 250M486 253L486 253M486 253L485 252L487 251M486 253L488 255M486 251L486 251M487 251L486 251M487 251L487 251M487 251L487 251M488 255L488 255M488 255L488 257M489 325L491 332M489 325L493 322L494 319L496 319L495 317L497 317L498 313M502 339L497 336L495 338L493 336L493 332L491 332M495 241L495 235L497 233L500 239L504 234L509 232L510 233L510 231L514 231L513 230L516 231L521 226M499 251L497 247L493 245L495 241M496 287L496 287M505 314L503 316L498 313M502 339L502 340M504 340L504 340M504 263L506 263M511 310L506 309L507 310L505 314M507 316L505 314M507 316L508 316M518 203L517 201L520 198L519 197L517 199L513 194L524 183L524 185L526 185L525 184L527 178L530 177L529 171L533 165L532 164L534 160L532 160L530 156L528 156L529 157L526 159L518 159L515 155L515 151L512 148L510 150L507 147L510 142L508 140M509 316L509 316M510 316L511 316M511 316L512 315M513 315L514 315M515 315L516 315M545 220L542 217L543 216L539 214L540 213L538 211L535 212L528 208L525 209L522 206L523 204L521 202L518 203M518 203L515 206L516 207L510 204L509 207L511 207L513 219L517 217L520 222L520 224L518 224L521 226M521 226L522 225L525 228L525 230L527 228L531 236L530 239L533 243L532 245M564 225L559 224L559 220L551 224L548 220L545 220M419 284L419 284"/>
        <path class="leaflet-interactive" stroke="gray" stroke-opacity="1" stroke-width="0.7" stroke-linecap="round"
              stroke-linejoin="round" fill="none" d="M463 371L463 371M467 368L465 370L468 371L467 368"/>
        <path class="leaflet-interactive" stroke="red" stroke-opacity="1" stroke-width="2" stroke-linecap="round"
              stroke-linejoin="round" fill="none"
              d="M237 261L235 256L238 254L237 253L239 250L240 251L247 246L247 249L252 249L255 243L258 244L267 238L273 236M265 308L263 304L268 304L264 294L266 292L262 290L260 284L256 284L253 281L251 281L248 275L246 275L246 273L243 274L241 272L243 272M265 308L265 308M417 364L416 363L408 369L407 367L403 369L401 367L399 367L399 369L395 369L396 376L393 377L392 373L388 375L386 371L381 370L383 366L380 365L378 361L380 359L379 358L373 360L372 359L373 352L377 348L379 348L379 338L377 336L376 337L375 332L372 331L369 336L365 332L362 332L357 336L353 337L349 341L341 341L340 337L338 337L337 334L334 335L335 334L326 333L323 339L323 335L321 333L318 335L314 335L311 333L309 333L309 335L307 333L307 335L294 325L293 326L285 320L284 321L284 319L280 318L279 321L276 318L272 317L271 315L268 315L265 312L265 308M273 236L273 231L275 229L274 228L277 227L274 216L271 213L281 210L286 211L287 210L285 206L289 196M289 196L290 194L295 197L304 196L304 186L310 183L310 180L312 178L316 178L318 182L317 183L322 187L329 189L332 192L335 199L333 209L336 212L337 211L342 213L350 213L357 219L359 218L365 231L390 231L395 232L398 235L408 238L411 237L412 239L414 239L427 233L439 233L444 231L454 222L451 218L454 212L458 214L465 214L470 209L473 210L479 206L478 205L482 201L485 202L485 200L494 198L498 200L499 197L492 188L488 188L485 191L483 189L479 189L477 191L475 189L474 187L476 186L481 172M431 374L424 372L423 369L425 367L417 364M433 466L433 460M439 407L442 413M445 430L443 436M453 481L459 479M474 459L478 454M481 172L487 175L491 172M491 172L496 170L495 167L500 155L504 153L504 148L500 146L505 140L521 138L525 141L529 141L534 146L537 152L536 153L539 157L539 161L542 165L541 168L543 168L543 173L546 175L549 174L557 180L559 180L561 188M491 438L494 431M494 408L494 415M500 390L497 396M511 374L506 379M514 363L516 355M561 188L562 191L568 191L579 185L586 184L582 188L584 190L580 194L581 195L578 201L579 202L574 212L573 213L567 210L565 213L562 214L564 220L563 229L561 229L559 231L560 232L556 228L555 232L552 233L551 236L545 236L547 240L546 241L541 240L539 238L532 246L531 245L525 250M561 188L561 188"/>
    </g>
</svg>